<?xml version="1.0" encoding="UTF-8"?>
<svg id="Layer_1" data-name="Layer 1" xmlns="http://www.w3.org/2000/svg" viewBox="0 0 159.81 175.57">
  <defs>
    <style>
      .cls-1 {
        fill: #fff;
      }
    </style>
  </defs>
  <path d="m158.53,78.86c-3.26-21.7-12.42-41.75-25.78-56.47C118.06,6.2,99.5-1.82,81.8.35c-5.54.68-10.79,2.33-15.67,4.82-.47-.23-.96-.44-1.47-.6-1.66-.57-3.39-.68-5.3-.27l-16.89,3.74c-4.23.92-8.31,2.5-12.1,4.7-1.91,1.1-3.77,2.36-5.51,3.74-1.76,1.38-3.45,2.92-5.04,4.57-.11.11-.22.23-.32.35-.25.28-.45.53-.61.74-1.91,2.06-3.58,4.15-5.09,6.37-1.58,2.27-3.05,4.75-4.38,7.36v.02c-.19.28-.35.57-.49.87-1.45,3.03-2.69,6.05-3.78,9.25-1.42,3.98-2.54,8.33-3.32,12.92-.57,3.06-1,6.01-1.26,8.77,0,.02,0,.04,0,.07-.49,4.33-.56,8.43-.56,11.89,0,.04,0,.08,0,.12.03,2.59.16,5.35.37,8.25.32,4.17.8,7.92,1.45,11.46.49,2.91,1.06,5.64,1.71,8.11.94,4.09,2.14,7.92,3.08,10.81.03.09.06.18.09.27.91,2.53,1.89,5.02,2.99,7.6,1.36,3.43,3.05,6.96,5.18,10.8.06.11.13.22.19.33.66,1.15,1.32,2.19,1.97,3.2l.67,1.06c.18.29.36.58.54.88.36.6.77,1.29,1.26,2.01,1.75,2.75,3.76,5.46,5.99,8.05.26.32.51.61.77.91l.28.33.07.08c.19.22.39.45.57.67.1.12.2.23.3.35,2.33,2.58,4.86,5,7.52,7.2,4.8,4.08,9.95,7.28,15.31,9.53.04.02.08.03.11.05,2.43,1.04,5.05,1.89,8.02,2.58.83.19,1.58.32,2.19.42l.25.04c1.95.35,3.89.57,5.77.65.43.06,1.12.16,1.96.16.58,0,1.08-.05,1.45-.1,2.82-.09,5.33-.38,7.71-.89l17.3-3.84s.07-.02.11-.02c2.08-.49,3.87-1.59,5.21-3.06,1.44.13,2.88.22,4.32.22,1.92,0,3.84-.12,5.75-.35,16.44-2.03,30.44-12.37,39.42-29.12,8.87-16.52,11.94-37.67,8.65-59.54Zm-66.58,90.67c-.13-.01-.27-.03-.4-.05.13.02.27.04.4.05h0Z"/>
  <g>
    <path class="cls-1" d="m122.73,94.3c-.18,3.71-.83,7.41-1.88,11.1-.4,1.39-1.03,2.61-1.59,3.88-.17.39-.46.67-.69.99-.08-.09-.16-.17-.24-.25.38-1.56.76-3.11,1.14-4.68.37-1.58.44-3.26.17-5.34-.92.98-1.68,1.79-2.5,2.67.21-1.17.45-2.26.62-3.38.28-1.84.43-3.65.45-5.44.05-6.03-1.44-11.82-4.64-17.32-1.76-3.02-3.9-5.27-6.44-6.57-.86-.43-1.71-.75-2.58-.31,1.01,1.22,2.01,2.31,2.92,3.53,4.46,5.94,6.26,12.78,5.19,20.11-.05.33-.1.66-.16.99-1.14,6.34-4.22,10.32-8.77,11.83-5.58,1.85-10.87-.49-15.59-6.39-2.23-2.78-3.87-5.93-4.96-9.39-.93-2.92-1.47-6.05-1.65-9.37-.28-5.09.42-9.61,2.13-13.65,1.47-3.49,3.49-6.13,6.03-8.11,3.43-2.69,7.26-3.4,11.37-2.47,6.61,1.51,12.21,6.27,16.41,14.34,4.03,7.73,5.64,15.5,5.26,23.22Z"/>
    <path class="cls-1" d="m125.71,28.77C100.65,1.16,67.09,3.49,50.75,33.96c-16.34,30.46-9.26,77.54,15.8,105.15,25.05,27.6,58.62,25.27,74.95-5.2,16.34-30.45,9.26-77.54-15.79-105.14Zm12.52,94.3c-2.55,6.7-6.01,12.29-10.37,16.74-5.78,5.89-12.43,9.2-19.9,10.01-6.19.67-12.43-.54-18.71-3.56-8.48-4.08-15.93-10.73-22.36-20.08-3.51-5.09-6.5-10.68-8.91-16.84-5.57-14.26-7.85-28.81-6.55-43.65,1-11.49,4.06-21.45,9.12-29.83,4.65-7.7,10.5-13.16,17.5-16.44,3.99-1.87,8.14-3.02,12.53-3,6.16.02,12.31,1.46,18.39,4.84,3.96,2.2,7.67,5.11,11.12,8.83.65.71,1.21,1.6,1.82,2.42-.03.15-.07.3-.09.45-.4-.07-.82-.02-1.19-.23-2.24-1.22-4.46-2.58-6.71-3.74-8.33-4.34-16.6-5.78-24.75-3.91-10.07,2.31-17.96,9.17-23.49,20.46-4.12,8.4-6.18,18.14-6,29.22.12,7.04.9,13.96,2.88,20.83,1.5,5.2,3.41,10.15,5.81,14.8,3.17,6.15,13.89,24.01,36.43,24.01,3.16,0,6.24-.94,9.06-2.52,5.46-3.02,10-7.64,13.33-14.39,3.7-7.51,5.49-16.09,5.2-25.88-.15-5.07-.62-10.16-2.01-15.19-1.95-7.06-4.56-13.65-8.27-19.47-1.08-1.7-7.73-12.61-15.26-15.87-5.35-2.31-10.54-2.64-15.61-1.32-8.14,2.12-14.12,8.27-17.92,18.16-2.17,5.64-2.97,12.02-2.86,18.86.13,8.15,2.15,15.78,5.66,22.82,4.58,9.22,10.65,15.38,18.2,17.81,5.41,1.74,10.43,1.15,14.89-2.37,1.37-1.1,2.7-2.21,3.72-3.96.47-.81,1.26-1.23,1.53-2.59-.68.45-1.25.81-1.8,1.22-1.19.88-2.34,1.92-3.57,2.69-3.31,2.06-6.94,2.59-10.78,1.64-6.65-1.65-12.19-6.39-16.52-14.41-1.68-3.11-2.96-6.38-3.85-9.8,0-.02-.01-.04-.01-.06h0c-.75-2.88-1.21-5.86-1.37-8.91-.15-2.76.13-5.51.46-8.16.32-2.5.84-4.92,1.47-7.24.41-1.5,1.17-2.75,1.77-4.11.03.02.07.05.1.08,2.59-5.24,6.95-9.82,14.1-12.23,12.34-3.85,33.72,15.83,31.12,45.39-.31,7.28-1.97,13.72-5.27,19.06-2.15,3.47-4.63,6.37-7.83,7.95-11.13,5.5-26.45-.09-33.71-8.57-6.54-7.64-10.66-17.13-12.67-28.2-1.25-6.88-1.45-13.6-.55-20.13,1.89-13.73,7.25-23.52,15.8-29.64,3.87-2.77,8.05-4.44,12.6-4.79,4.53-.35,9.09.35,13.68,2.23,4.08,1.66,7.99,4.1,11.69,7.4,5.95,5.33,10.97,12.05,14.98,20.34,3.87,8.01,6.27,16.55,7.5,25.58,1.88,13.63.65,26.09-3.59,37.25Z"/>
    <path class="cls-1" d="m93.58,160.54c-.07-.29-.35-.43-.65-.47-.03,0-.04-.06-.08-.06-.05,0-.11,0-.17.02-1.38-.15-2.82-.29-4.23-.59-1.32-.25-2.63-.58-3.93-.98-1.3-.41-2.59-.9-3.87-1.47-1.54-.64-3.07-1.52-4.6-2.37-2.78-1.56-5.55-3.33-8.26-5.6,0,0-.02-.02-.02-.02-1.11-.92-2.22-1.9-3.32-2.94-1.09-1.05-2.18-2.18-3.24-3.38-.35-.37-.65-.77-.98-1.16-.24-.29-.5-.57-.75-.89-1.93-2.23-3.75-4.64-5.36-7.19-1.62-2.22-3-4.5-4.27-6.89-.73-1.31-1.32-2.72-1.99-4.08,0,0,0-.02-.01-.02-.94-1.88-1.95-3.7-2.77-5.66,0,0,0-.01,0-.02-1.02-2.36-1.95-4.73-2.75-7.14,0,0,0-.02,0-.04-1.16-3.34-2.1-6.73-2.97-10.14,0,0,0-.02,0-.02-.57-2.46-1.13-4.91-1.49-7.5h0c-.38-2.02-.54-4.08-.78-6.13t0,.01c-.17-1.48-.45-2.95-.57-4.45-.26-2.53-.31-5.12-.34-7.63-.07-3.69.09-7.42.46-10.97.23-2.73.64-5.42,1.13-8.06.74-3.95,1.73-7.88,3.02-11.48.91-2.88,2.09-5.6,3.37-8.25.06-.09.1-.18.14-.33,0,0,.01-.01.01-.02,2.61-5.09,5.56-9.39,9-12.86,1.65-1.72,3.27-3.19,5.09-4.56,1.08-.8,2.17-1.52,3.35-2.19.37-.09.68-.47.57-.92-.07-.29-.35-.43-.65-.47-.04,0-.05-.06-.09-.06-.05,0-.11,0-.17.02l-16.93,3.75c-3.26.71-6.41,1.93-9.39,3.65-1.49.86-2.95,1.84-4.36,2.96-1.41,1.11-2.78,2.35-4.09,3.72,0,0,0,0-.01.02-.21.21-.39.5-.59.72h0c-1.55,1.66-3.04,3.47-4.41,5.5-1.41,2.02-2.71,4.22-3.9,6.61l-.23.37c-1.27,2.65-2.37,5.33-3.36,8.22,0,0,0,.02-.01.04-1.29,3.6-2.28,7.53-2.94,11.46-.5,2.63-.9,5.33-1.15,7.99v.03c-.42,3.63-.52,7.26-.52,11.03h0c.03,2.52.15,5.09.34,7.64.28,3.56.69,7.08,1.33,10.55.42,2.5.93,5.04,1.57,7.48,0,.01,0,.02,0,.02.79,3.45,1.79,6.76,2.88,10.13.88,2.46,1.82,4.83,2.83,7.18,0,.01,0,.02.01.03,1.33,3.39,2.95,6.64,4.69,9.78,0,0,0,.01.01.01.8,1.42,1.7,2.76,2.55,4.12.58.91,1.1,1.85,1.71,2.75,1.61,2.55,3.43,4.96,5.35,7.19.25.31.49.58.74.87.07.08.13.16.21.24.26.3.54.62.78.92,2.12,2.35,4.33,4.44,6.57,6.28,4.22,3.59,8.52,6.22,12.88,8.05h0c2.21.96,4.41,1.62,6.62,2.14.65.15,1.3.25,1.95.36,1.63.29,3.24.47,4.84.52.4.02.81.13,1.21.13.24,0,.48-.07.72-.08,2.15-.05,4.29-.23,6.38-.69l17.31-3.84c.37-.09.67-.47.57-.92ZM29.94,30.84c2.08-2.16,4.31-3.92,6.65-5.37l9.39-2.07c-2.03,2.7-3.97,5.66-5.75,9.14l-.24.48-.02.1c-.48,1.01-.83,1.86-1.22,2.75l-14.94,3.3c1.86-3.12,3.86-6,6.15-8.33Zm-11.49,19.76c.32-.92.75-1.8,1.1-2.7l16.11-3.57c-.91,2.93-1.74,6.06-2.39,9.53-.13.69-.17,1.23-.27,1.89l-16.83,3.73c.61-3.1,1.3-6.13,2.28-8.87Zm-3.87,18.41c.04-.45.16-.99.21-1.45l17.23-3.82c-.29,3.33-.48,6.69-.43,10.04,0,.31.04.61.05.92l-17.54,3.89c.02-3.75.15-6.79.48-9.58Zm-.17,17.92c-.01-.21-.01-.42-.02-.62l17.64-3.91c.31,3.72.73,7.12,1.3,10.16.01.13.06.24.07.37l-17.73,3.93c-.56-3.07-.97-6.3-1.25-9.92Zm5.59,27.13c-.9-2.79-1.93-6.1-2.77-9.73l17.66-3.91s.02.1.03.16c1.03,4.06,1.95,7.18,2.92,10.01l-17.67,3.91c-.05-.15-.12-.29-.17-.44Zm7.19,16.19c-1.7-3.05-3.02-5.83-4.16-8.6l17.53-3.88c.12.28.18.5.3.78,1.25,3,2.76,6,4.42,9.04l-17.35,3.84c-.25-.42-.5-.75-.74-1.19Zm12.59,17.18c-.58-.59-1.17-1.17-1.7-1.74l-.76-.89c-.29-.32-.58-.66-1.03-1.23-1.44-1.67-2.7-3.48-3.95-5.32l16.98-3.76c.31.47.63.98.95,1.41,1.68,2.67,3.62,5.27,5.59,7.53.11.14.21.23.32.37l-16.39,3.63Zm23.36,13.47c-2.45-.45-4.91-1.13-7.37-2.2-2.98-1.25-5.86-3.06-8.68-5.12l15.34-3.4c.83.76,1.55,1.62,2.44,2.35,2.85,2.39,5.83,4.33,8.85,6.03l-10.57,2.34Z"/>
  </g>
</svg>